<svg xmlns="http://www.w3.org/2000/svg" viewBox="0 0 120 120" width="120" height="120" role="img" aria-label="Chat bubble with lit bulb">
  <title>Chat bubble with lit bulb</title>

  <!-- defs for glow and shadow -->
  <defs>
    <radialGradient id="bulbGlow" cx="50%" cy="40%" r="60%">
      <stop offset="0%" stop-color="#FFF9C4" />
      <stop offset="50%" stop-color="#FFE082" stop-opacity="0.8" />
      <stop offset="100%" stop-color="#FFD54A" stop-opacity="0" />
    </radialGradient>

    <filter id="softShadow" x="-50%" y="-50%" width="200%" height="200%">
      <feDropShadow dx="0" dy="2" stdDeviation="3" flood-color="#000" flood-opacity="0.12"/>
    </filter>
  </defs>

  <!-- chat bubble body -->
  <g filter="url(#softShadow)">
    <rect x="10" y="18" width="100" height="64" rx="14" ry="14" fill="#EAF4FF" stroke="#0F172A" stroke-width="3"/>
    <!-- tail -->
    <path d="M36 82 L24 96 L40 86 Z" fill="#EAF4FF" stroke="#0F172A" stroke-width="3" stroke-linejoin="round"/>
  </g>

  <!-- bulb group -->
  <g transform="translate(0, -2)">
    <!-- bulb outer -->
    <circle cx="60" cy="44" r="18" fill="#FFD54A" stroke="#C07E00" stroke-width="2"/>

    <!-- inner glow -->
    <circle cx="60" cy="44" r="11" fill="url(#bulbGlow)" />

    <!-- filament -->
    <path d="M60 36 L60 46" stroke="#8B5E00" stroke-width="2" stroke-linecap="round"/>
    <path d="M56 42 Q60 36 64 42" fill="none" stroke="#8B5E00" stroke-width="2" stroke-linecap="round"/>

    <!-- base of bulb -->
    <rect x="52" y="56" width="16" height="8" rx="2" fill="#C07E00"/>
    <rect x="54" y="58" width="12" height="4" rx="1" fill="#8B5E00"/>

    <!-- subtle rays to show 'lit' -->
    <g stroke="#FFD54A" stroke-width="2" stroke-linecap="round" opacity="0.95">
      <line x1="60" y1="20" x2="60" y2="12" />
      <line x1="60" y1="68" x2="60" y2="76" opacity="0.2"/>
      <line x1="44" y1="28" x2="38" y2="22" />
      <line x1="76" y1="28" x2="82" y2="22" />
      <line x1="48" y1="18" x2="44" y2="12" opacity="0.85"/>
      <line x1="72" y1="18" x2="76" y2="12" opacity="0.85"/>
    </g>
  </g>
</svg>